<mxfile host="Electron" modified="2024-07-11T06:15:59.948Z" agent="Mozilla/5.0 (Macintosh; Intel Mac OS X 10_15_7) AppleWebKit/537.36 (KHTML, like Gecko) draw.io/24.4.13 Chrome/124.0.6367.207 Electron/30.0.6 Safari/537.36" etag="hYgqZryNS1OIjGcs3uGG" version="24.4.13" type="device">
  <diagram name="Page-1" id="qUWxuTj6uMywpWP915Xq">
    <mxGraphModel dx="1434" dy="854" grid="1" gridSize="10" guides="1" tooltips="1" connect="1" arrows="1" fold="1" page="1" pageScale="1" pageWidth="827" pageHeight="1169" math="0" shadow="0">
      <root>
        <mxCell id="0" />
        <mxCell id="1" parent="0" />
        <mxCell id="pVBd1uCom1DzXp7IC3Nk-2" value="" style="rounded=0;whiteSpace=wrap;html=1;" vertex="1" parent="1">
          <mxGeometry x="10" y="20" width="810" height="210" as="geometry" />
        </mxCell>
        <mxCell id="pVBd1uCom1DzXp7IC3Nk-4" value="" style="rounded=0;whiteSpace=wrap;html=1;" vertex="1" parent="1">
          <mxGeometry x="10" y="20" width="220" height="210" as="geometry" />
        </mxCell>
        <mxCell id="pVBd1uCom1DzXp7IC3Nk-6" value="" style="ellipse;whiteSpace=wrap;html=1;aspect=fixed;" vertex="1" parent="1">
          <mxGeometry x="30" y="40" width="40" height="40" as="geometry" />
        </mxCell>
        <mxCell id="pVBd1uCom1DzXp7IC3Nk-7" value="" style="verticalLabelPosition=bottom;verticalAlign=top;html=1;shape=mxgraph.basic.drop" vertex="1" parent="1">
          <mxGeometry x="40" y="45" width="20" height="30" as="geometry" />
        </mxCell>
        <mxCell id="pVBd1uCom1DzXp7IC3Nk-8" value="&lt;font style=&quot;font-size: 15px;&quot;&gt;Add New&lt;/font&gt;" style="text;html=1;align=left;verticalAlign=middle;whiteSpace=wrap;rounded=0;" vertex="1" parent="1">
          <mxGeometry x="84" y="45.5" width="70" height="30" as="geometry" />
        </mxCell>
        <mxCell id="pVBd1uCom1DzXp7IC3Nk-9" value="" style="verticalLabelPosition=bottom;verticalAlign=top;html=1;shape=mxgraph.basic.acute_triangle;dx=0.5;rotation=-180;" vertex="1" parent="1">
          <mxGeometry x="170" y="55" width="20" height="15" as="geometry" />
        </mxCell>
        <mxCell id="pVBd1uCom1DzXp7IC3Nk-11" value="" style="verticalLabelPosition=bottom;verticalAlign=top;html=1;shape=mxgraph.basic.donut;dx=25;" vertex="1" parent="1">
          <mxGeometry x="66" y="100" width="40" height="40" as="geometry" />
        </mxCell>
        <mxCell id="pVBd1uCom1DzXp7IC3Nk-12" value="" style="verticalLabelPosition=bottom;verticalAlign=top;html=1;shape=mxgraph.basic.4_point_star_2;dx=0.8;" vertex="1" parent="1">
          <mxGeometry x="71" y="105" width="30" height="30" as="geometry" />
        </mxCell>
        <mxCell id="pVBd1uCom1DzXp7IC3Nk-13" value="&lt;font style=&quot;font-size: 15px;&quot;&gt;Transporter&lt;/font&gt;" style="text;html=1;align=left;verticalAlign=middle;whiteSpace=wrap;rounded=0;" vertex="1" parent="1">
          <mxGeometry x="120" y="105" width="70" height="30" as="geometry" />
        </mxCell>
        <mxCell id="pVBd1uCom1DzXp7IC3Nk-14" value="" style="verticalLabelPosition=bottom;verticalAlign=top;html=1;shape=mxgraph.basic.donut;dx=25;" vertex="1" parent="1">
          <mxGeometry x="66" y="160" width="40" height="40" as="geometry" />
        </mxCell>
        <mxCell id="pVBd1uCom1DzXp7IC3Nk-15" value="" style="verticalLabelPosition=bottom;verticalAlign=top;html=1;shape=mxgraph.basic.4_point_star_2;dx=0.8;" vertex="1" parent="1">
          <mxGeometry x="71" y="165" width="30" height="30" as="geometry" />
        </mxCell>
        <mxCell id="pVBd1uCom1DzXp7IC3Nk-16" value="&lt;font style=&quot;font-size: 15px;&quot;&gt;Bunk&lt;/font&gt;" style="text;html=1;align=left;verticalAlign=middle;whiteSpace=wrap;rounded=0;" vertex="1" parent="1">
          <mxGeometry x="120" y="165" width="70" height="30" as="geometry" />
        </mxCell>
        <mxCell id="pVBd1uCom1DzXp7IC3Nk-17" value="" style="html=1;shadow=0;dashed=0;align=center;verticalAlign=middle;shape=mxgraph.arrows2.arrow;dy=0.7;dx=19;notch=0;" vertex="1" parent="1">
          <mxGeometry x="210" y="110" width="70" height="20" as="geometry" />
        </mxCell>
        <mxCell id="pVBd1uCom1DzXp7IC3Nk-19" value="" style="ellipse;shape=cloud;whiteSpace=wrap;html=1;" vertex="1" parent="1">
          <mxGeometry x="274" y="70" width="280" height="95" as="geometry" />
        </mxCell>
        <mxCell id="pVBd1uCom1DzXp7IC3Nk-20" value="&lt;font style=&quot;font-size: 15px;&quot;&gt;This will open Existing Transporter Creation Page&lt;/font&gt;" style="text;html=1;align=center;verticalAlign=middle;whiteSpace=wrap;rounded=0;" vertex="1" parent="1">
          <mxGeometry x="334" y="97.5" width="180" height="45" as="geometry" />
        </mxCell>
        <mxCell id="pVBd1uCom1DzXp7IC3Nk-21" value="" style="html=1;shadow=0;dashed=0;align=center;verticalAlign=middle;shape=mxgraph.arrows2.bendArrow;dy=5;dx=24.5;notch=0;arrowHead=37;rounded=0;rotation=90;" vertex="1" parent="1">
          <mxGeometry x="210" y="170" width="97.5" height="110" as="geometry" />
        </mxCell>
        <mxCell id="pVBd1uCom1DzXp7IC3Nk-22" value="" style="rounded=0;whiteSpace=wrap;html=1;" vertex="1" parent="1">
          <mxGeometry x="9" y="290" width="810" height="340" as="geometry" />
        </mxCell>
        <mxCell id="pVBd1uCom1DzXp7IC3Nk-23" value="&lt;font style=&quot;font-size: 15px;&quot;&gt;Bunk Creation Page&lt;/font&gt;" style="text;html=1;align=left;verticalAlign=middle;whiteSpace=wrap;rounded=0;" vertex="1" parent="1">
          <mxGeometry x="334" y="240" width="146" height="30" as="geometry" />
        </mxCell>
        <mxCell id="pVBd1uCom1DzXp7IC3Nk-24" value="" style="endArrow=none;dashed=1;html=1;dashPattern=1 3;strokeWidth=2;rounded=0;entryX=1.001;entryY=0.209;entryDx=0;entryDy=0;entryPerimeter=0;" edge="1" parent="1" target="pVBd1uCom1DzXp7IC3Nk-22">
          <mxGeometry width="50" height="50" relative="1" as="geometry">
            <mxPoint x="10" y="365" as="sourcePoint" />
            <mxPoint x="820" y="350" as="targetPoint" />
          </mxGeometry>
        </mxCell>
        <mxCell id="pVBd1uCom1DzXp7IC3Nk-25" value="&lt;font style=&quot;font-size: 18px;&quot;&gt;Bunk Master&lt;/font&gt;" style="text;html=1;align=left;verticalAlign=middle;whiteSpace=wrap;rounded=0;" vertex="1" parent="1">
          <mxGeometry x="30" y="310" width="146" height="30" as="geometry" />
        </mxCell>
        <mxCell id="pVBd1uCom1DzXp7IC3Nk-26" value="&amp;nbsp;Bunk Name" style="rounded=0;whiteSpace=wrap;html=1;align=left;" vertex="1" parent="1">
          <mxGeometry x="40" y="390" width="144" height="40" as="geometry" />
        </mxCell>
        <mxCell id="pVBd1uCom1DzXp7IC3Nk-28" value="&amp;nbsp;Account Number" style="rounded=0;whiteSpace=wrap;html=1;align=left;" vertex="1" parent="1">
          <mxGeometry x="366" y="390" width="144" height="40" as="geometry" />
        </mxCell>
        <mxCell id="pVBd1uCom1DzXp7IC3Nk-29" value="&amp;nbsp;Bunk Location" style="rounded=0;whiteSpace=wrap;html=1;align=left;" vertex="1" parent="1">
          <mxGeometry x="204" y="390" width="144" height="40" as="geometry" />
        </mxCell>
        <mxCell id="pVBd1uCom1DzXp7IC3Nk-30" value="&amp;nbsp;Account Holder Name" style="rounded=0;whiteSpace=wrap;html=1;align=left;" vertex="1" parent="1">
          <mxGeometry x="534" y="390" width="144" height="40" as="geometry" />
        </mxCell>
        <mxCell id="pVBd1uCom1DzXp7IC3Nk-31" value="&amp;nbsp;IFSC" style="rounded=0;whiteSpace=wrap;html=1;align=left;" vertex="1" parent="1">
          <mxGeometry x="40" y="450" width="144" height="40" as="geometry" />
        </mxCell>
        <mxCell id="pVBd1uCom1DzXp7IC3Nk-32" value="&amp;nbsp;Account Type" style="rounded=0;whiteSpace=wrap;html=1;align=left;" vertex="1" parent="1">
          <mxGeometry x="204" y="450" width="144" height="40" as="geometry" />
        </mxCell>
        <mxCell id="pVBd1uCom1DzXp7IC3Nk-33" value="" style="verticalLabelPosition=bottom;verticalAlign=top;html=1;shape=mxgraph.basic.acute_triangle;dx=0.5;rotation=-180;" vertex="1" parent="1">
          <mxGeometry x="315" y="466" width="20" height="10" as="geometry" />
        </mxCell>
        <mxCell id="pVBd1uCom1DzXp7IC3Nk-34" value="&amp;nbsp;Account Branch Name" style="rounded=0;whiteSpace=wrap;html=1;align=left;" vertex="1" parent="1">
          <mxGeometry x="366" y="450" width="144" height="40" as="geometry" />
        </mxCell>
        <mxCell id="pVBd1uCom1DzXp7IC3Nk-35" value="Create Bunk" style="rounded=1;whiteSpace=wrap;html=1;" vertex="1" parent="1">
          <mxGeometry x="364" y="580" width="86" height="30" as="geometry" />
        </mxCell>
        <mxCell id="pVBd1uCom1DzXp7IC3Nk-36" value="&amp;nbsp;Mail ID" style="rounded=0;whiteSpace=wrap;html=1;align=left;" vertex="1" parent="1">
          <mxGeometry x="534" y="450" width="144" height="40" as="geometry" />
        </mxCell>
        <mxCell id="pVBd1uCom1DzXp7IC3Nk-37" value="&amp;nbsp;Contact Person Name" style="rounded=0;whiteSpace=wrap;html=1;align=left;" vertex="1" parent="1">
          <mxGeometry x="40" y="510" width="144" height="40" as="geometry" />
        </mxCell>
        <mxCell id="pVBd1uCom1DzXp7IC3Nk-38" value="&amp;nbsp;Contact Person Number" style="rounded=0;whiteSpace=wrap;html=1;align=left;" vertex="1" parent="1">
          <mxGeometry x="204" y="510" width="144" height="40" as="geometry" />
        </mxCell>
        <mxCell id="pVBd1uCom1DzXp7IC3Nk-39" value="&amp;nbsp;Bunk Type&amp;nbsp;" style="rounded=0;whiteSpace=wrap;html=1;align=left;" vertex="1" parent="1">
          <mxGeometry x="364" y="510" width="144" height="40" as="geometry" />
        </mxCell>
        <mxCell id="pVBd1uCom1DzXp7IC3Nk-40" value="" style="verticalLabelPosition=bottom;verticalAlign=top;html=1;shape=mxgraph.basic.acute_triangle;dx=0.5;rotation=-180;" vertex="1" parent="1">
          <mxGeometry x="475" y="525" width="20" height="10" as="geometry" />
        </mxCell>
        <mxCell id="pVBd1uCom1DzXp7IC3Nk-41" value="&amp;nbsp;Credit Days" style="rounded=0;whiteSpace=wrap;html=1;align=left;" vertex="1" parent="1">
          <mxGeometry x="534" y="510" width="144" height="40" as="geometry" />
        </mxCell>
      </root>
    </mxGraphModel>
  </diagram>
</mxfile>
